<?xml version="1.0" standalone="no"?>
<!DOCTYPE svg PUBLIC "-//W3C//DTD SVG 20010904//EN"
 "http://www.w3.org/TR/2001/REC-SVG-20010904/DTD/svg10.dtd">
<svg version="1.0" xmlns="http://www.w3.org/2000/svg"
 width="700.000000pt" height="700.000000pt" viewBox="0 0 700.000000 700.000000"
 preserveAspectRatio="xMidYMid meet">
<metadata>
Created by potrace 1.11, written by Peter Selinger 2001-2013
</metadata>
<g transform="translate(0.000000,700.000000) scale(0.100000,-0.100000)"
fill="#000000" stroke="none">
<path d="M3280 6994 c-19 -2 -84 -9 -145 -14 -1017 -97 -1976 -678 -2549
-1545 -318 -480 -504 -995 -568 -1570 -17 -154 -17 -585 0 -730 51 -429 159
-807 337 -1170 286 -585 739 -1087 1295 -1435 627 -391 1392 -579 2117 -519
836 69 1576 404 2171 984 594 578 944 1295 1044 2140 17 144 17 586 0 730
-100 847 -445 1554 -1043 2141 -554 542 -1243 872 -2029 970 -117 15 -552 27
-630 18z m590 -290 c926 -107 1763 -613 2292 -1384 521 -759 690 -1717 463
-2620 -99 -391 -296 -802 -545 -1134 -525 -700 -1275 -1139 -2160 -1262 -158
-22 -603 -26 -760 -6 -558 70 -1071 267 -1510 577 -662 469 -1135 1195 -1295
1990 -50 246 -59 352 -59 645 0 294 11 408 60 645 256 1224 1174 2183 2374
2479 182 45 380 74 620 90 96 6 390 -5 520 -20z"/>
<path d="M3280 6363 c-527 -50 -955 -198 -1367 -472 -690 -459 -1138 -1172
-1260 -2006 -22 -151 -25 -568 -5 -725 120 -950 679 -1757 1527 -2206 273
-145 589 -246 920 -296 207 -32 609 -31 815 1 491 76 918 252 1300 536 758
565 1188 1454 1157 2395 -12 359 -73 655 -202 976 -217 541 -591 1001 -1075
1323 -484 321 -1032 485 -1607 479 -92 0 -184 -3 -203 -5z m865 -1807 c270
-61 425 -261 401 -519 -10 -103 -23 -152 -73 -256 -93 -195 -271 -321 -513
-361 -36 -6 -174 -14 -307 -17 -134 -3 -243 -7 -243 -9 0 -9 -111 -581 -116
-596 -5 -17 -25 -18 -236 -18 l-230 0 5 23 c3 12 78 396 167 852 89 457 166
852 172 879 l10 48 447 -5 c357 -4 460 -8 516 -21z"/>
<path d="M3575 4218 c-7 -29 -95 -470 -95 -476 0 -2 84 -2 188 0 169 3 192 6
237 26 103 47 155 124 163 238 6 91 -9 135 -60 178 -53 46 -105 56 -283 56
-142 0 -145 0 -150 -22z"/>
</g>
</svg>
